<svg width="202" height="202" viewBox="0 0 202 202" fill="none" xmlns="http://www.w3.org/2000/svg">
<g filter="url(#filter0_d_1_2)">
<path d="M101.003 16.8275C54.5879 16.8275 16.8293 54.5844 16.8293 100.996C16.8293 147.412 54.5897 185.172 101.002 185.172C147.412 185.172 185.169 147.412 185.169 100.996C185.171 54.5862 147.414 16.8275 101.003 16.8275ZM25.3235 100.996C25.3235 90.0271 27.6762 79.6088 31.876 70.1997L67.9765 169.108C42.7335 156.839 25.3235 130.952 25.3235 100.996ZM101.003 176.68C93.5746 176.68 86.4045 175.59 79.6245 173.596L102.329 107.617L125.596 171.347C125.746 171.723 125.93 172.066 126.135 172.389C118.268 175.156 109.816 176.68 101.003 176.68ZM111.431 65.5153C115.986 65.2757 120.094 64.7946 120.094 64.7946C124.17 64.3118 123.693 58.3208 119.61 58.5604C119.61 58.5604 107.353 59.5207 99.4379 59.5207C92.0038 59.5207 79.5038 58.5604 79.5038 58.5604C75.4246 58.3208 74.9489 64.555 79.0263 64.7946C79.0263 64.7946 82.8886 65.2757 86.9625 65.5153L98.7522 97.8217L82.1906 147.491L54.6369 65.5171C59.1989 65.2792 63.299 64.7964 63.299 64.7964C67.3747 64.3153 66.8937 58.3208 62.8128 58.5657C62.8128 58.5657 50.5612 59.526 42.6442 59.526C41.2221 59.526 39.5481 59.4892 37.7744 59.435C51.3029 38.8869 74.5658 25.3217 101.003 25.3217C120.708 25.3217 138.645 32.8539 152.107 45.1876C151.78 45.1701 151.463 45.1264 151.124 45.1264C143.693 45.1264 138.418 51.602 138.418 58.5587C138.418 64.7929 142.012 70.072 145.848 76.3062C148.729 81.3475 152.088 87.8249 152.088 97.178C152.088 103.657 149.6 111.172 146.328 121.643L138.78 146.868L111.431 65.5153ZM139.047 166.414L162.163 99.5796C166.486 88.7852 167.918 80.1528 167.918 72.472C167.918 69.6889 167.736 67.1018 167.407 64.6897C173.32 75.4701 176.684 87.8424 176.68 101C176.678 128.918 161.544 153.295 139.047 166.414Z" stroke="#4781FF" stroke-width="5" stroke-linejoin="round" shape-rendering="crispEdges"/>
</g>
<defs>
<filter id="filter0_d_1_2" x="10.3293" y="14.3275" width="181.34" height="181.345" filterUnits="userSpaceOnUse" color-interpolation-filters="sRGB">
<feFlood flood-opacity="0" result="BackgroundImageFix"/>
<feColorMatrix in="SourceAlpha" type="matrix" values="0 0 0 0 0 0 0 0 0 0 0 0 0 0 0 0 0 0 127 0" result="hardAlpha"/>
<feOffset dy="4"/>
<feGaussianBlur stdDeviation="2"/>
<feComposite in2="hardAlpha" operator="out"/>
<feColorMatrix type="matrix" values="0 0 0 0 0 0 0 0 0 0 0 0 0 0 0 0 0 0 0.25 0"/>
<feBlend mode="normal" in2="BackgroundImageFix" result="effect1_dropShadow_1_2"/>
<feBlend mode="normal" in="SourceGraphic" in2="effect1_dropShadow_1_2" result="shape"/>
</filter>
</defs>
</svg>
