<svg width="183" height="183" viewBox="0 0 183 183" fill="none" xmlns="http://www.w3.org/2000/svg">
<g filter="url(#filter0_d_1_6)">
<path d="M91.1742 3C44.7587 3 7 40.7569 7 87.169C7 133.585 44.7604 171.345 91.1725 171.345C137.583 171.345 175.34 133.585 175.34 87.169C175.341 40.7587 137.585 3 91.1742 3ZM15.4942 87.169C15.4942 76.1996 17.8469 65.7813 22.0468 56.3722L58.1472 155.28C32.9042 143.011 15.4942 117.124 15.4942 87.169ZM91.1742 162.853C83.7453 162.853 76.5752 161.763 69.7953 159.769L92.5002 93.7898L115.767 157.519C115.917 157.895 116.101 158.238 116.305 158.562C108.439 161.329 99.9868 162.853 91.1742 162.853ZM101.601 51.6878C106.156 51.4482 110.265 50.9671 110.265 50.9671C114.341 50.4843 113.863 44.4933 109.781 44.7329C109.781 44.7329 97.5239 45.6932 89.6087 45.6932C82.1745 45.6932 69.6746 44.7329 69.6746 44.7329C65.5954 44.4933 65.1196 50.7275 69.197 50.9671C69.197 50.9671 73.0593 51.4482 77.1332 51.6878L88.923 83.9942L72.3614 133.663L44.8077 51.6896C49.3696 51.4517 53.4698 50.9689 53.4698 50.9689C57.5455 50.4878 57.0644 44.4933 52.9835 44.7382C52.9835 44.7382 40.732 45.6985 32.815 45.6985C31.3929 45.6985 29.7189 45.6617 27.9452 45.6075C41.4736 25.0594 64.7365 11.4942 91.1742 11.4942C110.879 11.4942 128.816 19.0264 142.278 31.3601C141.951 31.3426 141.634 31.2989 141.295 31.2989C133.864 31.2989 128.588 37.7745 128.588 44.7312C128.588 50.9654 132.183 56.2445 136.019 62.4787C138.9 67.52 142.258 73.9974 142.258 83.3505C142.258 89.8296 139.771 97.3442 136.498 107.815L128.95 133.041L101.601 51.6878ZM129.218 152.586L152.334 85.7521C156.656 74.9577 158.089 66.3253 158.089 58.6445C158.089 55.8614 157.907 53.2743 157.578 50.8622C163.491 61.6426 166.854 74.0149 166.851 87.1725C166.849 115.09 151.715 139.467 129.218 152.586Z" stroke="#4781FF" stroke-width="6" stroke-linejoin="round" shape-rendering="crispEdges"/>
</g>
<defs>
<filter id="filter0_d_1_6" x="0" y="0" width="182.34" height="182.345" filterUnits="userSpaceOnUse" color-interpolation-filters="sRGB">
<feFlood flood-opacity="0" result="BackgroundImageFix"/>
<feColorMatrix in="SourceAlpha" type="matrix" values="0 0 0 0 0 0 0 0 0 0 0 0 0 0 0 0 0 0 127 0" result="hardAlpha"/>
<feOffset dy="4"/>
<feGaussianBlur stdDeviation="2"/>
<feComposite in2="hardAlpha" operator="out"/>
<feColorMatrix type="matrix" values="0 0 0 0 0 0 0 0 0 0 0 0 0 0 0 0 0 0 0.25 0"/>
<feBlend mode="normal" in2="BackgroundImageFix" result="effect1_dropShadow_1_6"/>
<feBlend mode="normal" in="SourceGraphic" in2="effect1_dropShadow_1_6" result="shape"/>
</filter>
</defs>
</svg>
